<svg xmlns="http://www.w3.org/2000/svg" width="24" height="24" fill="none"><path fill="#66DD8D" d="M4 7.5a.5.5 0 0 0 0 1v-1Zm16 1a.5.5 0 0 0 0-1v1ZM5.092 19.782l.227-.445-.227.445Zm-.874-.874-.446.227.446-.227Zm15.564 0-.445-.227.445.227Zm-.874.874-.227-.445.227.445Zm0-15.564.227-.446-.227.446Zm.874.874-.445.227.445-.227Zm-14.69-.874.227.445-.227-.445Zm-.874.874.445.227-.445-.227ZM16 12.5a.5.5 0 0 0 0-1v1Zm-8-1a.5.5 0 0 0 0 1v-1ZM16.5 2a.5.5 0 0 0-1 0h1Zm-1 2a.5.5 0 0 0 1 0h-1Zm-7-2a.5.5 0 0 0-1 0h1Zm-1 2a.5.5 0 0 0 1 0h-1ZM4 8.5h16v-1H4v1Zm3.2-4h9.6v-1H7.2v1Zm12.3 2.7v9.6h1V7.2h-1Zm-2.7 12.3H7.2v1h9.6v-1ZM4.5 16.8V7.2h-1v9.6h1Zm2.7 2.7c-.568 0-.964 0-1.273-.026-.303-.024-.477-.07-.608-.137l-.454.89c.296.151.616.214.98.244.36.03.803.029 1.355.029v-1Zm-3.7-2.7c0 .552 0 .996.029 1.354.03.365.093.685.243.981l.891-.454c-.067-.132-.113-.306-.137-.608-.026-.309-.026-.705-.026-1.273h-1Zm1.819 2.537a1.5 1.5 0 0 1-.656-.656l-.89.454c.24.47.621.853 1.092 1.092l.454-.89ZM19.5 16.8c0 .568 0 .965-.026 1.273-.024.303-.07.476-.137.608l.89.454c.152-.296.215-.616.244-.98.03-.36.029-.803.029-1.355h-1Zm-2.7 3.7c.552 0 .996 0 1.354-.029.365-.03.685-.093.98-.244l-.453-.89c-.132.067-.306.113-.608.137-.308.026-.704.026-1.273.026v1Zm2.537-1.819a1.501 1.501 0 0 1-.656.655l.454.892a2.5 2.5 0 0 0 1.093-1.093l-.891-.454ZM16.8 4.5c.569 0 .965 0 1.273.026.302.024.476.07.608.137l.454-.89c-.296-.151-.616-.214-.98-.244-.36-.03-.803-.029-1.355-.029v1Zm3.7 2.7c0-.552 0-.996-.029-1.354-.03-.365-.092-.685-.243-.981l-.891.454c.067.132.113.305.137.608.026.308.026.705.026 1.273h1Zm-1.82-2.537c.283.144.513.374.657.656l.89-.454a2.5 2.5 0 0 0-1.092-1.093l-.454.891ZM7.2 3.5c-.552 0-.996 0-1.354.029-.365.03-.685.093-.981.243l.454.891c.131-.067.305-.113.608-.137C6.236 4.5 6.632 4.5 7.2 4.5v-1ZM4.5 7.2c0-.568 0-.964.026-1.273.024-.302.07-.476.137-.608l-.89-.454c-.151.296-.214.616-.244.98-.03.36-.029.803-.029 1.355h1Zm.365-3.428a2.5 2.5 0 0 0-1.093 1.093l.891.454a1.5 1.5 0 0 1 .656-.656l-.454-.89ZM16 11.5H8v1h8v-1ZM15.5 2v2h1V2h-1Zm-8 0v2h1V2h-1Z"/></svg>