<svg xmlns="http://www.w3.org/2000/svg" width="24" height="24" fill="none"><path stroke="rgba(102, 221, 141, 1)" stroke-linecap="round" stroke-linejoin="round" stroke-width="2" d="m16 9-5.333 6L8 12m13-5.8v11.6c0 1.12 0 1.68-.218 2.108a2 2 0 0 1-.874.874C19.48 21 18.92 21 17.8 21H6.2c-1.12 0-1.68 0-2.108-.218a2 2 0 0 1-.874-.874C3 19.48 3 18.92 3 17.8V6.2c0-1.12 0-1.68.218-2.108a2 2 0 0 1 .874-.874C4.52 3 5.08 3 6.2 3h11.6c1.12 0 1.68 0 2.108.218a2 2 0 0 1 .874.874C21 4.52 21 5.08 21 6.2Z"/></svg>