<svg xmlns="http://www.w3.org/2000/svg" width="24" height="24" fill="none"><path stroke="rgba(102, 221, 141)" stroke-linecap="round" stroke-linejoin="round" stroke-width="2" d="m15 10-4 4-2-2M7.332 3.937 3.938 7.331c-.346.346-.52.52-.643.721a2 2 0 0 0-.24.578C3 8.86 3 9.105 3 9.594v4.812c0 .489 0 .733.055.964a2 2 0 0 0 .24.578c.124.202.297.375.643.72l3.394 3.395c.346.346.518.519.72.642.179.11.374.19.578.24.23.055.475.055.964.055h4.811c.49 0 .735 0 .965-.055a2 2 0 0 0 .578-.24c.202-.123.375-.296.72-.642l3.395-3.394c.346-.346.518-.52.642-.721a2 2 0 0 0 .24-.578c.055-.23.055-.475.055-.964V9.594c0-.489 0-.734-.056-.964a2.018 2.018 0 0 0-.239-.578c-.124-.202-.296-.375-.642-.72L16.67 3.936c-.346-.346-.519-.519-.72-.642a1.998 1.998 0 0 0-.579-.24C15.14 3 14.895 3 14.405 3H9.594c-.49 0-.734 0-.964.055a2 2 0 0 0-.578.24c-.202.123-.374.296-.72.642Z"/></svg>