<svg xmlns="http://www.w3.org/2000/svg" width="573" height="366" fill="none"><g stroke-miterlimit="10" stroke-width="3.16" clip-path="url(#a)"><path stroke="url(#b)" d="M97.5 31.04h188.256L314.81 2h118.205l30.407 30.402h59.289L559.5 69.176v278.92"/><path fill="#66DD8D" stroke="#66DD8D" d="M551.967 354.077a8.305 8.305 0 0 0 6.102 10.035 8.305 8.305 0 1 0 3.935-16.137 8.306 8.306 0 0 0-10.037 6.102Z"/><path stroke="#66DD8D" d="M79.57 29.675a8.305 8.305 0 0 0 6.586 9.726 8.306 8.306 0 1 0-6.585-9.726Z"/></g><defs><linearGradient id="b" x1="560" x2="91" y1="348" y2="23" gradientUnits="userSpaceOnUse"><stop stop-color="#66DD8D"/><stop offset=".505" stop-color="#315BEF"/><stop offset="1" stop-color="#66DD8D"/></linearGradient><clipPath id="a"><path fill="#fff" d="M628 366H0V0h628z"/></clipPath></defs></svg>