<svg xmlns="http://www.w3.org/2000/svg" width="498" height="237" fill="none"><g clip-path="url(#a)"><path stroke="#66DD8D" stroke-miterlimit="10" stroke-width="3.16" d="M489.333 219.047a7.99 7.99 0 1 0-2.842 15.726 7.99 7.99 0 0 0 2.842-15.726Z"/><path fill="#66DD8D" d="M19.74 9.86c0-5.45-4.42-9.87-9.87-9.87C4.42-.01 0 4.41 0 9.86c0 5.45 4.42 9.87 9.87 9.87 5.45 0 9.87-4.42 9.87-9.87Z"/><path stroke="url(#b)" stroke-miterlimit="10" stroke-width="3.16" d="M479.87 226.85H298.78L123.95 52.03H52.03L9.87 9.86"/></g><defs><linearGradient id="b" x1="480" x2="-49.5" y1="230.48" y2="-60.02" gradientUnits="userSpaceOnUse"><stop stop-color="#66DD8D"/><stop offset="1" stop-color="#315BEF"/></linearGradient><clipPath id="a"><path fill="#fff" d="M0 236.48V0h497.44v236.48z"/></clipPath></defs></svg>