<svg xmlns="http://www.w3.org/2000/svg" width="295" height="59" fill="none"><path stroke="url(#a)" stroke-miterlimit="10" stroke-width="3.16" d="M17.945 34.359 50.45 1.696h188.67l41.68 41.883"/><path stroke="#315BEF" stroke-miterlimit="10" stroke-width="3.16" d="M10.233 31.085c-4.713 0-8.534 3.84-8.534 8.576 0 4.737 3.82 8.577 8.534 8.577s8.535-3.84 8.535-8.577c0-4.736-3.821-8.576-8.535-8.576Z"/><path fill="#66DD8D" d="M275.485 35.069c-5.134 2.76-7.069 9.18-4.322 14.34 2.747 5.158 9.135 7.102 14.269 4.342 5.134-2.76 7.069-9.18 4.322-14.34-2.747-5.158-9.136-7.103-14.269-4.342Z"/><defs><linearGradient id="a" x1="274.518" x2="18.159" y1="35.958" y2="37.021" gradientUnits="userSpaceOnUse"><stop stop-color="#66DD8D"/><stop offset="1" stop-color="#315BEF"/></linearGradient></defs></svg>